<?xml version="1.0" encoding="utf-8" standalone="no"?>
<!DOCTYPE svg PUBLIC "-//W3C//DTD SVG 1.1//EN"
  "http://www.w3.org/Graphics/SVG/1.1/DTD/svg11.dtd">
<svg xmlns:xlink="http://www.w3.org/1999/xlink" width="584.399516pt" height="238.79952pt" viewBox="0 0 584.399516 238.79952" xmlns="http://www.w3.org/2000/svg" version="1.1">
 <metadata>
  <rdf:RDF xmlns:dc="http://purl.org/dc/elements/1.1/" xmlns:cc="http://creativecommons.org/ns#" xmlns:rdf="http://www.w3.org/1999/02/22-rdf-syntax-ns#">
   <cc:Work>
    <dc:type rdf:resource="http://purl.org/dc/dcmitype/StillImage"/>
    <dc:date>2026-06-30T23:57:11.169757</dc:date>
    <dc:format>image/svg+xml</dc:format>
    <dc:creator>
     <cc:Agent>
      <dc:title>Matplotlib v3.10.8, https://matplotlib.org/</dc:title>
     </cc:Agent>
    </dc:creator>
   </cc:Work>
  </rdf:RDF>
 </metadata>
 <defs>
  <style type="text/css">*{stroke-linejoin: round; stroke-linecap: butt}</style>
 </defs>
 <g id="figure_1">
  <g id="patch_1">
   <path d="M 0 238.79952 
L 584.399516 238.79952 
L 584.399516 -0 
L 0 -0 
z
" style="fill: #ffffff"/>
  </g>
  <g id="axes_1">
   <g id="patch_2">
    <path d="M 58.942969 183.117879 
L 566.776028 183.117879 
L 566.776028 26.303438 
L 58.942969 26.303438 
z
" style="fill: #ffffff"/>
   </g>
   <g id="matplotlib.axis_1">
    <g id="xtick_1">
     <g id="text_1">
      <text style="font-size: 16.5px; font-family: 'Arial', 'DejaVu Sans', 'Liberation Sans', 'Bitstream Vera Sans', sans-serif; text-anchor: middle; fill: #262626" x="92.518708" y="207.42827" transform="rotate(-0 92.518708 207.42827)">−750</text>
     </g>
    </g>
    <g id="xtick_2">
     <g id="text_2">
      <text style="font-size: 16.5px; font-family: 'Arial', 'DejaVu Sans', 'Liberation Sans', 'Bitstream Vera Sans', sans-serif; text-anchor: middle; fill: #262626" x="150.809923" y="207.42827" transform="rotate(-0 150.809923 207.42827)">−500</text>
     </g>
    </g>
    <g id="xtick_3">
     <g id="text_3">
      <text style="font-size: 16.5px; font-family: 'Arial', 'DejaVu Sans', 'Liberation Sans', 'Bitstream Vera Sans', sans-serif; text-anchor: middle; fill: #262626" x="209.101137" y="207.42827" transform="rotate(-0 209.101137 207.42827)">−250</text>
     </g>
    </g>
    <g id="xtick_4">
     <g id="text_4">
      <text style="font-size: 16.5px; font-family: 'Arial', 'DejaVu Sans', 'Liberation Sans', 'Bitstream Vera Sans', sans-serif; text-anchor: middle; fill: #262626" x="267.392351" y="207.42827" transform="rotate(-0 267.392351 207.42827)">0</text>
     </g>
    </g>
    <g id="xtick_5">
     <g id="text_5">
      <text style="font-size: 16.5px; font-family: 'Arial', 'DejaVu Sans', 'Liberation Sans', 'Bitstream Vera Sans', sans-serif; text-anchor: middle; fill: #262626" x="325.683565" y="207.42827" transform="rotate(-0 325.683565 207.42827)">250</text>
     </g>
    </g>
    <g id="xtick_6">
     <g id="text_6">
      <text style="font-size: 16.5px; font-family: 'Arial', 'DejaVu Sans', 'Liberation Sans', 'Bitstream Vera Sans', sans-serif; text-anchor: middle; fill: #262626" x="383.97478" y="207.42827" transform="rotate(-0 383.97478 207.42827)">500</text>
     </g>
    </g>
    <g id="xtick_7">
     <g id="text_7">
      <text style="font-size: 16.5px; font-family: 'Arial', 'DejaVu Sans', 'Liberation Sans', 'Bitstream Vera Sans', sans-serif; text-anchor: middle; fill: #262626" x="442.265994" y="207.42827" transform="rotate(-0 442.265994 207.42827)">750</text>
     </g>
    </g>
    <g id="xtick_8">
     <g id="text_8">
      <text style="font-size: 16.5px; font-family: 'Arial', 'DejaVu Sans', 'Liberation Sans', 'Bitstream Vera Sans', sans-serif; text-anchor: middle; fill: #262626" x="500.557208" y="207.42827" transform="rotate(-0 500.557208 207.42827)">1000</text>
     </g>
    </g>
    <g id="xtick_9">
     <g id="text_9">
      <text style="font-size: 16.5px; font-family: 'Arial', 'DejaVu Sans', 'Liberation Sans', 'Bitstream Vera Sans', sans-serif; text-anchor: middle; fill: #262626" x="558.848423" y="207.42827" transform="rotate(-0 558.848423 207.42827)">1250</text>
     </g>
    </g>
    <g id="text_10">
     <text style="font-size: 18px; font-family: 'Arial', 'DejaVu Sans', 'Liberation Sans', 'Bitstream Vera Sans', sans-serif; text-anchor: middle; fill: #262626" x="312.859498" y="227.811082" transform="rotate(-0 312.859498 227.811082)">Time from event (ms)</text>
    </g>
   </g>
   <g id="matplotlib.axis_2">
    <g id="ytick_1">
     <g id="text_11">
      <text style="font-size: 16.5px; font-family: 'Arial', 'DejaVu Sans', 'Liberation Sans', 'Bitstream Vera Sans', sans-serif; text-anchor: end; fill: #262626" x="46.442969" y="181.895146" transform="rotate(-0 46.442969 181.895146)">0</text>
     </g>
    </g>
    <g id="ytick_2">
     <g id="text_12">
      <text style="font-size: 16.5px; font-family: 'Arial', 'DejaVu Sans', 'Liberation Sans', 'Bitstream Vera Sans', sans-serif; text-anchor: end; fill: #262626" x="46.442969" y="133.995312" transform="rotate(-0 46.442969 133.995312)">20</text>
     </g>
    </g>
    <g id="ytick_3">
     <g id="text_13">
      <text style="font-size: 16.5px; font-family: 'Arial', 'DejaVu Sans', 'Liberation Sans', 'Bitstream Vera Sans', sans-serif; text-anchor: end; fill: #262626" x="46.442969" y="86.095478" transform="rotate(-0 46.442969 86.095478)">40</text>
     </g>
    </g>
    <g id="ytick_4">
     <g id="text_14">
      <text style="font-size: 16.5px; font-family: 'Arial', 'DejaVu Sans', 'Liberation Sans', 'Bitstream Vera Sans', sans-serif; text-anchor: end; fill: #262626" x="46.442969" y="38.195644" transform="rotate(-0 46.442969 38.195644)">60</text>
     </g>
    </g>
    <g id="text_15">
     <text style="font-size: 18px; font-family: 'Arial', 'DejaVu Sans', 'Liberation Sans', 'Bitstream Vera Sans', sans-serif; text-anchor: middle; fill: #262626" x="20.303438" y="104.710658" transform="rotate(-90 20.303438 104.710658)">Rate (Hz)</text>
    </g>
   </g>
   <g id="FillBetweenPolyCollection_1">
    <defs>
     <path id="me6ff386405" d="M 82.02629 -150.040356 
L 82.02629 -80.958418 
L 86.689587 -85.648997 
L 91.352884 -91.685104 
L 96.016181 -90.854332 
L 100.679478 -111.850322 
L 105.342775 -109.674023 
L 110.006072 -109.674023 
L 114.66937 -80.109151 
L 119.332667 -69.196214 
L 123.995964 -70.149223 
L 128.659261 -89.309156 
L 133.322558 -105.275768 
L 137.985855 -88.356148 
L 142.649152 -89.022633 
L 147.31245 -83.968959 
L 151.975747 -85.20849 
L 156.639044 -99.963431 
L 161.302341 -95.150615 
L 165.965638 -86.333978 
L 170.628935 -90.538385 
L 175.292233 -93.307427 
L 179.95553 -77.340816 
L 184.618827 -84.393945 
L 189.282124 -73.056022 
L 193.945421 -88.678739 
L 198.608718 -88.678739 
L 203.272015 -80.534138 
L 207.935313 -66.002892 
L 212.59861 -69.196214 
L 217.261907 -69.196214 
L 221.925204 -77.340816 
L 226.588501 -85.909697 
L 231.251798 -86.862706 
L 235.915095 -70.149223 
L 240.578393 -70.149223 
L 245.24169 -62.80957 
L 249.904987 -62.80957 
L 254.568284 -62.80957 
L 259.231581 -66.002892 
L 263.894878 -66.002892 
L 268.558175 -62.80957 
L 273.221473 -62.80957 
L 277.88477 -62.80957 
L 282.548067 -62.80957 
L 287.211364 -62.80957 
L 291.874661 -62.80957 
L 296.537958 -62.80957 
L 301.201255 -62.80957 
L 305.864553 -62.80957 
L 310.52785 -62.80957 
L 315.191147 -62.80957 
L 319.854444 -62.80957 
L 324.517741 -62.80957 
L 329.181038 -62.80957 
L 333.844335 -62.80957 
L 338.507633 -62.80957 
L 343.17093 -62.80957 
L 347.834227 -62.80957 
L 352.497524 -62.80957 
L 357.160821 -62.80957 
L 361.824118 -62.80957 
L 366.487415 -62.80957 
L 371.150713 -62.80957 
L 375.81401 -62.80957 
L 380.477307 -62.80957 
L 385.140604 -62.80957 
L 389.803901 -62.80957 
L 394.467198 -62.80957 
L 399.130495 -62.80957 
L 403.793793 -62.80957 
L 408.45709 -62.80957 
L 413.120387 -62.80957 
L 417.783684 -62.80957 
L 422.446981 -62.80957 
L 427.110278 -62.80957 
L 431.773575 -62.80957 
L 436.436873 -62.80957 
L 441.10017 -62.80957 
L 445.763467 -62.80957 
L 450.426764 -62.80957 
L 455.090061 -62.80957 
L 459.753358 -62.80957 
L 464.416655 -62.80957 
L 469.079953 -62.80957 
L 473.74325 -62.80957 
L 478.406547 -62.80957 
L 483.069844 -62.80957 
L 487.733141 -62.80957 
L 492.396438 -62.80957 
L 497.059735 -62.80957 
L 501.723033 -62.80957 
L 506.38633 -62.80957 
L 511.049627 -62.80957 
L 515.712924 -62.80957 
L 520.376221 -62.80957 
L 525.039518 -62.80957 
L 529.702816 -62.80957 
L 534.366113 -62.80957 
L 539.02941 -62.80957 
L 543.692707 -62.80957 
L 543.692707 -62.80957 
L 543.692707 -62.80957 
L 539.02941 -62.80957 
L 534.366113 -62.80957 
L 529.702816 -62.80957 
L 525.039518 -62.80957 
L 520.376221 -62.80957 
L 515.712924 -62.80957 
L 511.049627 -62.80957 
L 506.38633 -62.80957 
L 501.723033 -62.80957 
L 497.059735 -62.80957 
L 492.396438 -62.80957 
L 487.733141 -62.80957 
L 483.069844 -62.80957 
L 478.406547 -62.80957 
L 473.74325 -62.80957 
L 469.079953 -62.80957 
L 464.416655 -62.80957 
L 459.753358 -62.80957 
L 455.090061 -62.80957 
L 450.426764 -62.80957 
L 445.763467 -62.80957 
L 441.10017 -62.80957 
L 436.436873 -62.80957 
L 431.773575 -62.80957 
L 427.110278 -62.80957 
L 422.446981 -62.80957 
L 417.783684 -62.80957 
L 413.120387 -62.80957 
L 408.45709 -62.80957 
L 403.793793 -62.80957 
L 399.130495 -62.80957 
L 394.467198 -62.80957 
L 389.803901 -62.80957 
L 385.140604 -62.80957 
L 380.477307 -62.80957 
L 375.81401 -62.80957 
L 371.150713 -62.80957 
L 366.487415 -62.80957 
L 361.824118 -62.80957 
L 357.160821 -62.80957 
L 352.497524 -62.80957 
L 347.834227 -62.80957 
L 343.17093 -62.80957 
L 338.507633 -62.80957 
L 333.844335 -62.80957 
L 329.181038 -62.80957 
L 324.517741 -62.80957 
L 319.854444 -62.80957 
L 315.191147 -62.80957 
L 310.52785 -62.80957 
L 305.864553 -62.80957 
L 301.201255 -62.80957 
L 296.537958 -62.80957 
L 291.874661 -62.80957 
L 287.211364 -62.80957 
L 282.548067 -62.80957 
L 277.88477 -62.80957 
L 273.221473 -62.80957 
L 268.558175 -72.389537 
L 263.894878 -88.356148 
L 259.231581 -97.936115 
L 254.568284 -110.709404 
L 249.904987 -120.289371 
L 245.24169 -120.289371 
L 240.578393 -132.109651 
L 235.915095 -132.109651 
L 231.251798 -163.296002 
L 226.588501 -154.669044 
L 221.925204 -134.498025 
L 217.261907 -123.482693 
L 212.59861 -123.482693 
L 207.935313 -126.676015 
L 203.272015 -150.464636 
L 198.608718 -151.900002 
L 193.945421 -151.900002 
L 189.282124 -129.202852 
L 184.618827 -146.604829 
L 179.95553 -134.498025 
L 175.292233 -156.851281 
L 170.628935 -159.620323 
L 165.965638 -163.82473 
L 161.302341 -183.747993 
L 156.639044 -198.095111 
L 151.975747 -155.370251 
L 147.31245 -137.449849 
L 142.649152 -141.976141 
L 137.985855 -152.222593 
L 133.322558 -183.202807 
L 128.659261 -160.849552 
L 123.995964 -132.109651 
L 119.332667 -123.482693 
L 114.66937 -131.729689 
L 110.006072 -188.384519 
L 105.342775 -188.384519 
L 100.679478 -205.368153 
L 96.016181 -178.464309 
L 91.352884 -187.213505 
L 86.689587 -164.509711 
L 82.02629 -150.040356 
z
" style="stroke: #d55e00; stroke-opacity: 0.25; stroke-width: 1.5"/>
    </defs>
    <g clip-path="url(#p1419f2b7f1)">
     <use xlink:href="#me6ff386405" x="0" y="238.79952" style="fill: #d55e00; fill-opacity: 0.25; stroke: #d55e00; stroke-opacity: 0.25; stroke-width: 1.5"/>
    </g>
   </g>
   <g id="line2d_1">
    <path d="M 82.02629 123.300133 
L 86.689587 113.720166 
L 91.352884 99.350216 
L 96.016181 104.140199 
L 100.679478 80.190282 
L 105.342775 89.770249 
L 110.006072 89.770249 
L 114.66937 132.8801 
L 119.332667 142.460066 
L 123.995964 137.670083 
L 128.659261 113.720166 
L 133.322558 94.560233 
L 137.985855 118.510149 
L 142.649152 123.300133 
L 147.31245 128.090116 
L 151.975747 118.510149 
L 156.639044 89.770249 
L 161.302341 99.350216 
L 165.965638 113.720166 
L 170.628935 113.720166 
L 175.292233 113.720166 
L 179.95553 132.8801 
L 184.618827 123.300133 
L 189.282124 137.670083 
L 193.945421 118.510149 
L 198.608718 118.510149 
L 203.272015 123.300133 
L 207.935313 142.460066 
L 212.59861 142.460066 
L 217.261907 142.460066 
L 221.925204 132.8801 
L 226.588501 118.510149 
L 231.251798 113.720166 
L 235.915095 137.670083 
L 240.578393 137.670083 
L 245.24169 147.25005 
L 249.904987 147.25005 
L 254.568284 152.040033 
L 259.231581 156.830017 
L 263.894878 161.62 
L 268.558175 171.199967 
L 273.221473 175.98995 
L 277.88477 175.98995 
L 282.548067 175.98995 
L 287.211364 175.98995 
L 291.874661 175.98995 
L 296.537958 175.98995 
L 301.201255 175.98995 
L 305.864553 175.98995 
L 310.52785 175.98995 
L 315.191147 175.98995 
L 319.854444 175.98995 
L 324.517741 175.98995 
L 329.181038 175.98995 
L 333.844335 175.98995 
L 338.507633 175.98995 
L 343.17093 175.98995 
L 347.834227 175.98995 
L 352.497524 175.98995 
L 357.160821 175.98995 
L 361.824118 175.98995 
L 366.487415 175.98995 
L 371.150713 175.98995 
L 375.81401 175.98995 
L 380.477307 175.98995 
L 385.140604 175.98995 
L 389.803901 175.98995 
L 394.467198 175.98995 
L 399.130495 175.98995 
L 403.793793 175.98995 
L 408.45709 175.98995 
L 413.120387 175.98995 
L 417.783684 175.98995 
L 422.446981 175.98995 
L 427.110278 175.98995 
L 431.773575 175.98995 
L 436.436873 175.98995 
L 441.10017 175.98995 
L 445.763467 175.98995 
L 450.426764 175.98995 
L 455.090061 175.98995 
L 459.753358 175.98995 
L 464.416655 175.98995 
L 469.079953 175.98995 
L 473.74325 175.98995 
L 478.406547 175.98995 
L 483.069844 175.98995 
L 487.733141 175.98995 
L 492.396438 175.98995 
L 497.059735 175.98995 
L 501.723033 175.98995 
L 506.38633 175.98995 
L 511.049627 175.98995 
L 515.712924 175.98995 
L 520.376221 175.98995 
L 525.039518 175.98995 
L 529.702816 175.98995 
L 534.366113 175.98995 
L 539.02941 175.98995 
L 543.692707 175.98995 
" clip-path="url(#p1419f2b7f1)" style="fill: none; stroke: #d55e00; stroke-width: 2.2; stroke-linecap: round"/>
   </g>
   <g id="line2d_2">
    <path d="M 267.392351 183.117879 
L 267.392351 26.303438 
" clip-path="url(#p1419f2b7f1)" style="fill: none; stroke-dasharray: 8.325,3.6; stroke-dashoffset: 0; stroke: #1a1a1a; stroke-opacity: 0.6; stroke-width: 2.25"/>
   </g>
   <g id="patch_3">
    <path d="M 58.942969 183.117879 
L 58.942969 26.303438 
" style="fill: none; stroke: #262626; stroke-width: 1.875; stroke-linejoin: miter; stroke-linecap: square"/>
   </g>
   <g id="patch_4">
    <path d="M 58.942969 183.117879 
L 566.776028 183.117879 
" style="fill: none; stroke: #262626; stroke-width: 1.875; stroke-linejoin: miter; stroke-linecap: square"/>
   </g>
   <g id="text_16">
    <g id="patch_5">
     <path d="M 256.715476 55.520037 
L 278.069226 55.520037 
L 278.069226 43.480193 
L 256.715476 43.480193 
z
" style="fill: #ffffff; opacity: 0.75"/>
    </g>
    <text style="font-size: 11px; font-family: 'Arial', 'DejaVu Sans', 'Liberation Sans', 'Bitstream Vera Sans', sans-serif; text-anchor: middle; fill: #262626" x="267.392351" y="52.343787" transform="rotate(-0 267.392351 52.343787)">Puff</text>
   </g>
   <g id="text_17">
    <text style="font-size: 18px; font-family: 'Arial', 'DejaVu Sans', 'Liberation Sans', 'Bitstream Vera Sans', sans-serif; text-anchor: middle; fill: #262626" x="312.859498" y="20.303438" transform="rotate(-0 312.859498 20.303438)">avr (UG)() | SS event-locked rate</text>
   </g>
  </g>
 </g>
 <defs>
  <clipPath id="p1419f2b7f1">
   <rect x="58.942969" y="26.303438" width="507.833059" height="156.814442"/>
  </clipPath>
 </defs>
</svg>
